<svg class="animate-svg -rotate-90" width="283" height="283" viewBox="0 0 283 283" fill="none" xmlns="http://www.w3.org/2000/svg">
<line y1="-0.5" x2="283" y2="-0.5" transform="matrix(-1 0 0 1 283 1)" stroke="#E3C351"/>
<line y1="-0.5" x2="282" y2="-0.5" transform="matrix(0 -1 -1 0 282 283)" stroke="#E3C351"/>
<line class="animate-me opacity-0" y1="-0.5" x2="282" y2="-0.5" transform="matrix(-0.104528 -0.994522 -0.994522 0.104528 282 283)" stroke="#E3C351"/>
<line class="animate-me opacity-0" y1="-0.5" x2="282" y2="-0.5" transform="matrix(-0.207912 -0.978148 -0.978148 0.207912 282 283)" stroke="#E3C351"/>
<line class="animate-me opacity-0" y1="-0.5" x2="282" y2="-0.5" transform="matrix(-0.309017 -0.951057 -0.951057 0.309017 282 283)" stroke="#E3C351"/>
<line class="animate-me opacity-0" y1="-0.5" x2="282" y2="-0.5" transform="matrix(-0.406737 -0.913545 -0.913545 0.406737 282 283)" stroke="#E3C351"/>
<line class="animate-me opacity-0" y1="-0.5" x2="282" y2="-0.5" transform="matrix(-0.5 -0.866025 -0.866025 0.5 282 283)" stroke="#E3C351"/>
<line class="animate-me opacity-0" y1="-0.5" x2="282" y2="-0.5" transform="matrix(-0.587785 -0.809017 -0.809017 0.587785 282 283)" stroke="#E3C351"/>
<line class="animate-me opacity-0" y1="-0.5" x2="282" y2="-0.5" transform="matrix(-0.669131 -0.743145 -0.743145 0.669131 282 283)" stroke="#E3C351"/>
<line class="animate-me opacity-0" y1="-0.5" x2="282" y2="-0.5" transform="matrix(-0.743145 -0.669131 -0.669131 0.743145 282 283)" stroke="#E3C351"/>
<line class="animate-me opacity-0" y1="-0.5" x2="282" y2="-0.5" transform="matrix(-0.809017 -0.587785 -0.587785 0.809017 282 283)" stroke="#E3C351"/>
<line class="animate-me opacity-0" y1="-0.5" x2="282" y2="-0.5" transform="matrix(-0.866025 -0.5 -0.5 0.866025 282 283)" stroke="#E3C351"/>
<line class="animate-me opacity-0" y1="-0.5" x2="282" y2="-0.5" transform="matrix(-0.913545 -0.406737 -0.406737 0.913545 282 283)" stroke="#E3C351"/>
<line class="animate-me opacity-0" y1="-0.5" x2="282" y2="-0.5" transform="matrix(-0.951056 -0.309017 -0.309017 0.951056 282 283)" stroke="#E3C351"/>
<line class="animate-me opacity-0" y1="-0.5" x2="282" y2="-0.5" transform="matrix(-0.978148 -0.207912 -0.207912 0.978148 282 283)" stroke="#E3C351"/>
<line class="animate-me opacity-0" y1="-0.5" x2="282" y2="-0.5" transform="matrix(-0.994522 -0.104528 -0.104528 0.994522 282 283)" stroke="#E3C351"/>
<line class="animate-me opacity-0" y1="-0.5" x2="282" y2="-0.5" transform="matrix(-1 0 0 1 283 282.999)" stroke="#E3C351"/>
<line y1="-0.5" x2="282" y2="-0.5" transform="matrix(4.37114e-08 1 1 -4.37114e-08 1 1)" stroke="#E3C351"/>
</svg>
